<svg width="26" height="20" viewBox="0 0 26 20" fill="none" xmlns="http://www.w3.org/2000/svg">
<path d="M24.5453 6.94375C24.7281 6.79844 25 6.93437 25 7.16406V16.75C25 17.9922 23.9922 19 22.75 19H3.25C2.00781 19 1 17.9922 1 16.75V7.16875C1 6.93438 1.26719 6.80312 1.45469 6.94844C2.50469 7.76406 3.89688 8.8 8.67813 12.2734C9.66719 12.9953 11.3359 14.5141 13 14.5047C14.6734 14.5188 16.375 12.9672 17.3266 12.2734C22.1078 8.8 23.4953 7.75938 24.5453 6.94375ZM13 13C14.0875 13.0188 15.6531 11.6313 16.4406 11.0594C22.6609 6.54531 23.1344 6.15156 24.5687 5.02656C24.8406 4.81562 25 4.4875 25 4.14062V3.25C25 2.00781 23.9922 1 22.75 1H3.25C2.00781 1 1 2.00781 1 3.25V4.14062C1 4.4875 1.15937 4.81094 1.43125 5.02656C2.86563 6.14687 3.33906 6.54531 9.55938 11.0594C10.3469 11.6313 11.9125 13.0188 13 13Z" stroke="black" stroke-width="2"/>
</svg>
