<?xml version="1.0" encoding="utf-8"?>
<!-- Generator: Adobe Illustrator 27.1.1, SVG Export Plug-In . SVG Version: 6.00 Build 0)  -->
<svg version="1.1" id="woah" xmlns="http://www.w3.org/2000/svg" xmlns:xlink="http://www.w3.org/1999/xlink" x="0px" y="0px"
	 viewBox="0 0 704 554" style="enable-background:new 0 0 704 554;" xml:space="preserve">
<style type="text/css">
	.st0{fill:#EE4266;}
</style>
<path class="st0" d="M657,243.9V240c0-121.5-86-220-192-220H239C137.2,20,53.9,110.8,47.4,225.6c-20.7,5.9-33.5,26.9-30.1,47.6
	C6.4,290.2,0,311,0,333.6v8.9c0,39.7,20,74.1,49,90.8C59.8,501.9,112.1,554,175.1,554h353.8c63,0,115.3-52,126.1-120.7
	c29.1-16.7,49-51.1,49-90.9v-8.9C704,294.7,685,261,657,243.9z M239,62h226c80.5,0,146.3,75.5,149.8,170H344.6c-6.8-5-15.3-8-24.9-8
	H89.6C96.4,133.3,160.8,62,239,62z M70.1,397c-4.5-2.6-8.8-6.1-12.5-10.4C47.5,375.1,42,359.4,42,342.4v-8.9c0-3.3,0.2-6.7,0.7-10
	L86.1,397H70.1z M63.1,272.8h252.9L231.3,397h0l-0.2,0.3l-41.2,60.5c-0.1,0.1-0.1,0.1-0.1,0.2c-0.1,0-0.1,0-0.2,0
	c-0.1,0-0.2,0-0.2,0s-0.1-0.1-0.1-0.2L63.1,272.8z M587.9,483.4c-16.1,18.5-37,28.6-58.9,28.6H175.1c-21.9,0-42.8-10.2-58.9-28.6
	c-9.8-11.2-17.2-24.7-21.8-39.4h32.2l21.7,36.8c8.6,14.5,24.3,23.6,41,23.6c16.7,0,32.4-9,41-23.6l21.7-36.8h357.4
	C605,458.7,597.7,472.2,587.9,483.4z M662,342.5c0,17-5.5,32.7-15.6,44.2c-3.7,4.3-7.9,7.8-12.4,10.3H293l68-115.1
	c0.4-0.6,0.7-1.2,1-1.8h273.7c3.8,2.4,7.4,5.5,10.7,9.3c10.1,11.5,15.6,27.2,15.6,44.2V342.5z"/>
</svg>
