<?xml version="1.0" encoding="UTF-8"?><svg id="Layer_3" xmlns="http://www.w3.org/2000/svg" viewBox="0 0 704 554"><path d="M610.96,439.01c-4.38,16.7-12.23,31.89-23.13,44.38-16.1,18.45-37.03,28.61-58.94,28.61H175.1c-21.91,0-42.84-10.16-58.94-28.61-10.9-12.49-18.75-27.68-23.13-44.38h30.74l24.72,41.83c8.59,14.54,24.31,23.58,41,23.58s32.41-9.04,41-23.58l24.72-41.83h355.74m46.04-42H231.26l-36.91,62.47c-1.16,1.96-3,2.95-4.85,2.95s-3.68-.98-4.85-2.95l-36.91-62.47H47v10.19c0,81.07,57.35,146.8,128.1,146.8h353.79c70.75,0,128.1-65.72,128.1-146.8v-10.19h0Z"/><path d="M59.29,224v42H319.71c.11,0,.19,0,.25,.01,.1,.12,.21,.33,.26,.49-.03,.05-.07,.12-.13,.21l-130.21,191.14c-.06,.09-.1,.14-.13,.17-.05,.01-.13,.03-.25,.03s-.2-.02-.25-.03c-.03-.03-.07-.08-.13-.17L58.91,266.71c-.06-.09-.1-.16-.13-.21,.04-.16,.15-.36,.26-.49,.06,0,.14-.01,.25-.01v-42m0,0c-34.1,0-54.28,38.17-35.09,66.35l130.21,191.14c8.43,12.37,21.75,18.55,35.09,18.55s26.66-6.19,35.09-18.55l130.21-191.14c19.2-28.18-.99-66.35-35.09-66.35H59.29Z"/><path d="M439.8,274c19.14,22.52,42.5,41.43,68.53,55.35,33.83,18.09,72.1,27.66,110.67,27.66,14.23,0,28.35-1.27,42.24-3.79-1.84,12.77-6.95,24.38-14.84,33.42-8.64,9.91-19.66,15.36-31.03,15.36H289.96l71.03-120.21c1.48-2.5,2.72-5.11,3.72-7.78h75.09M42.66,323.51l46.38,78.48h-.41c-11.36,0-22.38-5.46-31.03-15.36-10.06-11.53-15.6-27.23-15.6-44.2v-8.87c0-3.41,.22-6.77,.66-10.05m417.75-91.51H88.63C39.68,232,0,277.47,0,333.56v8.87c0,56.09,39.68,101.56,88.63,101.56h74.01L54.17,260.41c-2.63-4.45,.15-10.46,4.85-10.46H319.99c4.69,0,7.48,6.01,4.85,10.46l-108.48,183.58h399.01c48.95,0,88.63-45.47,88.63-101.56v-8.87c0-2.16-.06-4.3-.17-6.43-.67-12.29-10.92-21.28-22.5-21.28-2.16,0-4.36,.31-6.56,.97-17.66,5.32-36.38,8.18-55.77,8.18-65.71,0-123.74-32.85-158.59-83h0Z"/><path d="M391.74,62c-5.14,19.48-7.74,39.57-7.74,60,0,38.4,9.48,76.51,27.42,110.23,1.05,1.98,2.14,3.95,3.25,5.89h-69.54c-7.49-4.69-16.21-7.26-25.14-7.26H89.2c4.02-93.92,69.68-168.87,149.8-168.87h152.74m25.74-42H239c-106.04,0-192,98.5-192,220.01v40.11h6.18c-.26-3.68,2.21-7.26,5.83-7.26H319.99c3.62,0,6.09,3.58,5.83,7.26h182.51c-49.78-34.91-82.33-92.71-82.33-158.12,0-24.78,4.67-48.46,13.18-70.22,5.98-15.28-5.3-31.78-21.7-31.78h0Z"/></svg>