<?xml version="1.0" encoding="UTF-8"?><svg id="woah" xmlns="http://www.w3.org/2000/svg" viewBox="0 0 704 554"><path d="M610.96,439.01c-4.38,16.7-12.23,31.89-23.13,44.38-16.1,18.45-37.03,28.61-58.94,28.61H175.1c-21.91,0-42.84-10.16-58.94-28.61-10.9-12.49-18.75-27.68-23.13-44.38h30.74l24.72,41.83c8.59,14.54,24.31,23.58,41,23.58s32.41-9.04,41-23.58l24.72-41.83h355.74m46.04-42H231.26l-36.91,62.47c-1.16,1.96-3,2.95-4.85,2.95s-3.68-.98-4.85-2.95l-36.91-62.47H47v10.19c0,81.07,57.35,146.8,128.1,146.8h353.79c70.75,0,128.1-65.72,128.1-146.8v-10.19h0Z"/><path d="M59.29,224v42H319.71c.11,0,.19,0,.25,.01,.1,.12,.21,.33,.26,.49-.03,.05-.07,.12-.13,.21l-130.21,191.14c-.06,.09-.1,.14-.13,.17-.05,.01-.13,.03-.25,.03s-.2-.02-.25-.03c-.03-.03-.07-.08-.13-.17L58.91,266.71c-.06-.09-.1-.16-.13-.21,.04-.16,.15-.36,.26-.49,.06,0,.14-.01,.25-.01v-42m0,0c-34.1,0-54.28,38.17-35.09,66.35l130.21,191.14c8.43,12.37,21.75,18.55,35.09,18.55s26.66-6.19,35.09-18.55l130.21-191.14c19.2-28.18-.99-66.35-35.09-66.35H59.29Z"/><path d="M615.37,274c11.36,0,22.38,5.46,31.03,15.36,10.06,11.53,15.6,27.23,15.6,44.2v8.87c0,16.97-5.54,32.67-15.6,44.2-8.64,9.91-19.66,15.36-31.03,15.36H289.96l71.03-120.21c1.48-2.5,2.72-5.11,3.72-7.78h250.66M42.66,323.51l46.38,78.48h-.41c-11.36,0-22.38-5.46-31.03-15.36-10.06-11.53-15.6-27.23-15.6-44.2v-8.87c0-3.41,.22-6.77,.66-10.05m572.71-91.51H88.63C39.68,232,0,277.47,0,333.56v8.87c0,56.09,39.68,101.56,88.63,101.56h74.01L54.17,260.41c-2.63-4.45,.15-10.46,4.85-10.46H319.99c4.69,0,7.48,6.01,4.85,10.46l-108.48,183.58h399.01c48.95,0,88.63-45.47,88.63-101.56v-8.87c0-56.09-39.68-101.56-88.63-101.56h0Z"/><path d="M465,62c82.18,0,149.13,78.83,149.99,176.12H345.13c-7.49-4.69-16.21-7.26-25.14-7.26H89.2c4.02-93.92,69.68-168.87,149.8-168.87h226.01m0-42H239c-106.04,0-192,98.5-192,220.01v40.11h6.18c-.26-3.68,2.21-7.26,5.83-7.26H319.99c3.62,0,6.09,3.58,5.83,7.26h331.18v-40.11c0-121.51-85.96-220.01-192-220.01h0Z"/></svg>