<?xml version="1.0" encoding="UTF-8"?><svg id="Layer_1" xmlns="http://www.w3.org/2000/svg" viewBox="0 0 40 40"><defs><style>.cls-1{stroke:#000;stroke-linecap:round;stroke-linejoin:round;}.cls-1,.cls-2{fill:#fff;}</style></defs><rect class="cls-2" width="40" height="40"/><rect class="cls-2" width="40" height="40"/><path class="cls-1" d="M11.74,20.25c-.61,0-1.14-.22-1.58-.65-.43-.43-.64-.95-.64-1.57s.21-1.12,.64-1.54c.44-.43,.96-.65,1.58-.65,.58,0,1.09,.22,1.53,.65,.45,.43,.68,.94,.68,1.54,0,.41-.11,.78-.32,1.12-.2,.34-.47,.6-.81,.8-.33,.2-.69,.3-1.08,.3Zm8.27,0c-.61,0-1.14-.22-1.58-.65-.43-.43-.64-.95-.64-1.57s.21-1.12,.64-1.54c.44-.43,.96-.65,1.58-.65,.58,0,1.09,.22,1.53,.65,.45,.43,.68,.94,.68,1.54,0,.41-.11,.78-.32,1.12-.2,.34-.47,.6-.81,.8-.33,.2-.69,.3-1.08,.3Zm8.27,0c-.61,0-1.14-.22-1.58-.65-.43-.43-.64-.95-.64-1.57s.21-1.12,.64-1.54c.44-.43,.96-.65,1.58-.65,.58,0,1.09,.22,1.53,.65,.45,.43,.68,.94,.68,1.54,0,.41-.11,.78-.32,1.12-.2,.34-.47,.6-.81,.8-.33,.2-.69,.3-1.08,.3ZM4.08,36.25c-.61,0-1.14-.22-1.58-.65-.43-.43-.64-.95-.64-1.57s.21-1.12,.64-1.54c.44-.43,.96-.65,1.58-.65,.58,0,1.09,.22,1.53,.65,.45,.43,.68,.94,.68,1.54,0,.41-.11,.78-.32,1.12-.2,.34-.47,.6-.81,.8-.33,.2-.69,.3-1.08,.3Zm31.85,0c-.61,0-1.14-.22-1.58-.65-.43-.43-.64-.95-.64-1.57s.21-1.12,.64-1.54c.44-.43,.96-.65,1.58-.65,.58,0,1.09,.22,1.53,.65,.45,.43,.68,.94,.68,1.54,0,.41-.11,.78-.32,1.12-.2,.34-.47,.6-.81,.8-.33,.2-.69,.3-1.08,.3Z"/><path class="cls-2" d="M18.22,33.39v2.38H10v-2.38s8.22,0,8.22,0Zm11.79,0v2.38h-8.22v-2.38h8.22Z"/><path class="cls-1" d="M17.2,24.44v4.28H6.43v-4.28h10.77Zm16.37,0v4.28h-10.77v-4.28h10.77Z"/></svg>