<?xml version="1.0" encoding="UTF-8"?><svg id="Layer_1" xmlns="http://www.w3.org/2000/svg" xmlns:xlink="http://www.w3.org/1999/xlink" viewBox="0 0 40 40"><defs><style>.cls-1{fill:none;}.cls-2{clip-path:url(#clippath);}.cls-3,.cls-4{fill:#fff;}.cls-4{stroke:#000;stroke-miterlimit:10;stroke-width:.5px;}</style><clipPath id="clippath"><rect class="cls-1" width="40" height="40"/></clipPath></defs><g class="cls-2"><g><rect class="cls-3" width="40" height="40"/><rect class="cls-3" width="40" height="40"/><path class="cls-4" d="M11.74,20.25c-.61,0-1.14-.22-1.58-.65-.43-.43-.64-.95-.64-1.57,0-.6,.21-1.12,.64-1.54,.44-.43,.96-.65,1.58-.65,.58,0,1.09,.22,1.53,.65,.45,.43,.68,.94,.68,1.54,0,.41-.11,.78-.32,1.12-.2,.34-.47,.6-.81,.8-.33,.2-.69,.3-1.08,.3Zm8.27,0c-.61,0-1.14-.22-1.58-.65-.43-.43-.64-.95-.64-1.57,0-.6,.21-1.12,.64-1.54,.44-.43,.96-.65,1.58-.65,.58,0,1.09,.22,1.53,.65,.45,.43,.68,.94,.68,1.54,0,.41-.11,.78-.32,1.12-.2,.34-.47,.6-.81,.8-.33,.2-.69,.3-1.08,.3Zm8.27,0c-.61,0-1.14-.22-1.58-.65-.43-.43-.64-.95-.64-1.57,0-.6,.21-1.12,.64-1.54,.44-.43,.96-.65,1.58-.65,.58,0,1.09,.22,1.53,.65,.45,.43,.68,.94,.68,1.54,0,.41-.11,.78-.32,1.12-.2,.34-.47,.6-.81,.8-.33,.2-.69,.3-1.08,.3ZM4.08,36.25c-.61,0-1.14-.22-1.58-.65-.43-.43-.64-.95-.64-1.57,0-.6,.21-1.12,.64-1.54,.44-.43,.96-.65,1.58-.65,.58,0,1.09,.22,1.53,.65,.45,.43,.68,.94,.68,1.54,0,.41-.11,.78-.32,1.12-.2,.34-.47,.6-.81,.8-.33,.2-.69,.3-1.08,.3Zm31.85,0c-.61,0-1.14-.22-1.58-.65-.43-.43-.64-.95-.64-1.57,0-.6,.21-1.12,.64-1.54,.44-.43,.96-.65,1.58-.65,.58,0,1.09,.22,1.53,.65,.45,.43,.68,.94,.68,1.54,0,.41-.11,.78-.32,1.12-.2,.34-.47,.6-.81,.8-.33,.2-.69,.3-1.08,.3Z"/><path class="cls-3" d="M18.22,33.39v2.38H10v-2.38h8.22Zm11.79,0v2.38h-8.22v-2.38h8.22Z"/><path class="cls-4" d="M17.2,24.44v4.28H6.43v-4.28h10.77Zm16.37,0v4.28h-10.77v-4.28h10.77Z"/></g></g></svg>