<?xml version="1.0" encoding="utf-8"?>
<!-- Generator: Adobe Illustrator 27.0.0, SVG Export Plug-In . SVG Version: 6.00 Build 0)  -->
<svg version="1.1" xmlns="http://www.w3.org/2000/svg" xmlns:xlink="http://www.w3.org/1999/xlink" x="0px" y="0px"
	 viewBox="0 0 458.7 110.1" style="enable-background:new 0 0 458.7 110.1;" xml:space="preserve">
<style type="text/css">
	.st0{display:none;}
	.st1{display:inline;}
	.st2{fill:none;}
	.st3{stroke:#000000;stroke-width:10;stroke-miterlimit:10;}
	.st4{font-family:'Inter-ExtraBold';}
	.st5{font-size:85px;}
	.st6{letter-spacing:6;}
	.st7{fill:#FFFFFF;}
</style>
<g id="Layer_1" class="st0">
	<path class="st1" d="M18.7,80.7l-2,0.2l0.2,1.8h1.8V80.7z M17.4,78.3l-1.2,1.6l0,0l0,0L17.4,78.3z M12,77.8l-0.7-1.9l0,0L12,77.8z
		 M10.6,78.7l1.6,1.2l0,0l0,0L10.6,78.7z M10.1,80.2l2,0.1l0,0l0,0L10.1,80.2z M10.4,81.3l-1.7,1l0,0l0,0L10.4,81.3z M11.2,82.2
		l-1.1,1.6l0,0l0,0L11.2,82.2z M12.6,82.8l0.7-1.9l0,0L12.6,82.8z M14.4,83.3l0.4-2l0,0l0,0L14.4,83.3z M16.9,83.9l-0.4,2l0,0l0,0
		L16.9,83.9z M20.7,85.2L19.9,87l0,0L20.7,85.2z M23.5,87l-1.4,1.4l0,0L23.5,87z M25.2,89.5l-1.8,0.8l0,0L25.2,89.5z M25.8,92.7l2,0
		l0,0l0,0L25.8,92.7z M24.4,97.4l-1.6-1.1l0,0L24.4,97.4z M20.5,100.4l-0.8-1.9l0,0L20.5,100.4z M7.9,100.4l0.7-1.9l0,0L7.9,100.4z
		 M3.7,97L2,98.2L3.7,97z M2.1,91.4v-2h-2l0,2L2.1,91.4z M8.8,91.4l2-0.1l-0.1-1.9H8.8V91.4z M9.6,93.7L8,94.9h0L9.6,93.7z
		 M11.4,95.2L10.7,97l0,0L11.4,95.2z M16.6,95.3l-0.7-1.9l0,0L16.6,95.3z M18.1,94.2L16.6,93l0,0L18.1,94.2z M18.7,92.6l2,0l0,0l0,0
		L18.7,92.6z M18.2,91.2l-1.5,1.3l0,0l0,0L18.2,91.2z M16.6,90.2L15.8,92l0,0l0,0L16.6,90.2z M14,89.4l-0.5,1.9l0,0L14,89.4z
		 M11,88.7l0.5-1.9l0,0L11,88.7z M5,85.9l-1.3,1.5l0,0L5,85.9z M2.9,80.6l2,0l0,0l0,0L2.9,80.6z M4.3,75.9l-1.6-1.2l0,0L4.3,75.9z
		 M8.4,72.7l0.8,1.8l0,0L8.4,72.7z M20.1,72.8l-0.8,1.8l0,0L20.1,72.8z M24,75.9l1.7-1.1l0,0L24,75.9z M25.4,80.7v2h2l0-2L25.4,80.7
		z M20.7,80.5c-0.1-1.5-0.8-2.9-2-3.8l-2.4,3.2c0.3,0.2,0.4,0.5,0.5,1L20.7,80.5z M18.7,76.7c-1.2-1-2.8-1.3-4.4-1.3v4
		c1.1,0,1.7,0.2,1.9,0.4L18.7,76.7z M14.2,75.4c-1.1,0-2.1,0.1-3,0.5l1.5,3.7c0.3-0.1,0.8-0.2,1.5-0.2V75.4z M11.2,75.9
		c-0.9,0.3-1.7,0.9-2.3,1.7l3.2,2.4c0,0,0.1-0.2,0.5-0.3L11.2,75.9z M9,77.6c-0.6,0.8-0.8,1.6-0.9,2.6l4,0.1c0-0.1,0-0.2,0.1-0.2
		L9,77.6z M8.1,80.1c0,0.8,0.1,1.5,0.5,2.2l3.5-2c0,0,0,0,0,0c0,0,0,0,0,0c0,0,0,0,0-0.1L8.1,80.1z M8.7,82.3
		c0.4,0.6,0.9,1.1,1.4,1.5l2.3-3.3c-0.2-0.1-0.2-0.2-0.3-0.3L8.7,82.3z M10.2,83.9c0.5,0.3,1.1,0.6,1.8,0.9l1.3-3.8
		c-0.4-0.1-0.7-0.3-0.9-0.4L10.2,83.9z M11.9,84.7c0.6,0.2,1.3,0.4,2,0.6l0.8-3.9c-0.6-0.1-1.1-0.3-1.5-0.4L11.9,84.7z M14,85.3
		l2.5,0.6l0.9-3.9l-2.5-0.6L14,85.3z M16.5,85.9c1.3,0.3,2.4,0.7,3.4,1.1l1.7-3.6c-1.3-0.6-2.7-1.1-4.2-1.4L16.5,85.9z M19.9,87
		c0.9,0.4,1.7,0.9,2.2,1.5l2.8-2.9c-0.9-0.9-2-1.6-3.3-2.2L19.9,87z M22.1,88.5c0.6,0.5,1,1.1,1.2,1.8l3.7-1.5
		c-0.5-1.2-1.2-2.3-2.2-3.2L22.1,88.5z M23.4,90.3c0.3,0.7,0.4,1.5,0.4,2.4l4,0c0-1.4-0.2-2.7-0.7-3.9L23.4,90.3z M23.8,92.6
		c0,1.5-0.4,2.7-1,3.6l3.3,2.3c1.2-1.7,1.7-3.7,1.8-5.9L23.8,92.6z M22.8,96.2c-0.7,1-1.7,1.7-3.1,2.3l1.5,3.7
		c2-0.8,3.7-2.1,4.8-3.7L22.8,96.2z M19.7,98.6c-1.4,0.6-3.2,0.9-5.5,0.9v4c2.6,0,4.9-0.4,7-1.2L19.7,98.6z M14.2,99.5
		c-2.2,0-4.1-0.3-5.6-0.9l-1.5,3.7c2.1,0.8,4.5,1.2,7.1,1.2V99.5z M8.6,98.5c-1.5-0.6-2.5-1.5-3.3-2.6L2,98.2c1.2,1.8,3,3.2,5.1,4.1
		L8.6,98.5z M5.3,95.9c-0.7-1.1-1.2-2.6-1.2-4.5l-4,0.1c0,2.6,0.6,4.8,1.9,6.7L5.3,95.9z M2.1,93.4h6.7v-4H2.1V93.4z M6.9,91.5
		c0.1,1.2,0.4,2.4,1.1,3.4l3.3-2.3c-0.2-0.3-0.3-0.7-0.4-1.3L6.9,91.5z M8,94.9c0.7,1,1.6,1.7,2.7,2.1l1.5-3.7
		c-0.5-0.2-0.8-0.4-1-0.7L8,94.9z M10.7,97c1.1,0.4,2.2,0.6,3.5,0.6v-4c-0.8,0-1.5-0.1-2-0.3L10.7,97z M14.2,97.6
		c1.1,0,2.2-0.1,3.1-0.5l-1.4-3.7c-0.4,0.1-0.9,0.2-1.7,0.2V97.6z M17.3,97.1c0.9-0.4,1.8-0.9,2.4-1.7L16.6,93
		c-0.1,0.1-0.3,0.3-0.7,0.4L17.3,97.1z M19.7,95.4c0.6-0.8,1-1.8,1-2.8l-4-0.1c0,0.2,0,0.2-0.1,0.4L19.7,95.4z M20.7,92.6
		c0-1-0.3-1.9-1-2.7l-3,2.6c0,0,0,0,0,0c0,0,0,0,0,0.1L20.7,92.6z M19.7,90c-0.6-0.7-1.4-1.2-2.3-1.6l-1.5,3.7
		c0.5,0.2,0.7,0.4,0.8,0.5L19.7,90z M17.4,88.4c-0.8-0.4-1.8-0.7-3-0.9l-0.9,3.9c1,0.2,1.7,0.5,2.3,0.7L17.4,88.4z M14.5,87.5
		l-3-0.7l-0.9,3.9l3,0.7L14.5,87.5z M11.4,86.7c-2.3-0.5-3.9-1.3-5.1-2.3l-2.7,3c1.8,1.6,4.1,2.6,6.8,3.3L11.4,86.7z M6.4,84.4
		c-1-0.9-1.5-2-1.5-3.8l-4,0c0,2.7,0.9,5,2.8,6.8L6.4,84.4z M4.9,80.6c0-1.4,0.4-2.6,1.1-3.6l-3.2-2.3c-1.2,1.7-1.8,3.7-1.8,5.9
		L4.9,80.6z M5.9,77.1c0.7-1,1.8-1.9,3.2-2.5l-1.6-3.7c-2,0.9-3.7,2.1-4.9,3.8L5.9,77.1z M9.2,74.6c1.4-0.6,3.1-1,5.1-1v-4
		c-2.4,0-4.7,0.4-6.7,1.3L9.2,74.6z M14.3,73.6c2,0,3.7,0.3,5,1l1.7-3.6c-2-0.9-4.2-1.3-6.7-1.3V73.6z M19.3,74.6
		c1.4,0.6,2.4,1.5,3,2.5l3.3-2.2c-1.1-1.7-2.7-3-4.7-3.9L19.3,74.6z M22.3,77.1c0.7,1,1.1,2.2,1.1,3.7l4,0c0-2.2-0.6-4.1-1.7-5.9
		L22.3,77.1z M25.4,78.7h-6.7v4h6.7V78.7z M48.6,72v-2h-2v2H48.6z M55.6,72h2v-2h-2V72z M54,96.4l1.7,1.1l0,0L54,96.4z M49.7,100.2
		l0.9,1.8l0,0L49.7,100.2z M36.8,100.2l-0.9,1.8l0,0L36.8,100.2z M32.5,96.4l-1.7,1.1l0,0L32.5,96.4z M31,72v-2h-2v2H31z M38,72h2
		v-2h-2V72z M38.6,92.8l-1.7,1l0,0l0,0L38.6,92.8z M40.5,94.7l1-1.7l0,0L40.5,94.7z M46,94.7l-1-1.7l0,0L46,94.7z M48.6,74h7v-4h-7
		V74z M53.6,72v18.8h4V72H53.6z M53.6,90.8c0,1.8-0.4,3.3-1.2,4.6l3.4,2.2c1.3-2,1.9-4.2,1.9-6.7H53.6z M52.3,95.3
		c-0.8,1.3-2,2.3-3.5,3l1.7,3.6c2.2-1,3.9-2.5,5.1-4.4L52.3,95.3z M48.9,98.3c-1.5,0.7-3.4,1.1-5.6,1.1v4c2.7,0,5.1-0.5,7.3-1.5
		L48.9,98.3z M43.3,99.5c-2.2,0-4.1-0.4-5.6-1.1l-1.7,3.6c2.2,1,4.6,1.5,7.3,1.5V99.5z M37.7,98.3c-1.5-0.7-2.7-1.7-3.5-3l-3.4,2.2
		c1.2,1.9,3,3.4,5.1,4.4L37.7,98.3z M34.2,95.4c-0.8-1.2-1.2-2.8-1.2-4.6h-4c0,2.5,0.6,4.8,1.8,6.7L34.2,95.4z M33,90.8V72h-4v18.8
		H33z M31,74h7v-4h-7V74z M36,72v18.2h4V72H36z M36,90.2c0,1.3,0.3,2.5,0.9,3.7l3.5-1.9c-0.3-0.5-0.4-1-0.4-1.7H36z M36.9,93.8
		c0.6,1.1,1.5,2,2.6,2.6l2-3.5c-0.5-0.3-0.8-0.6-1.1-1.1L36.9,93.8z M39.5,96.4c1.1,0.6,2.4,0.9,3.7,0.9v-4c-0.8,0-1.3-0.2-1.8-0.4
		L39.5,96.4z M43.3,97.4c1.3,0,2.6-0.3,3.7-0.9l-2-3.5c-0.4,0.2-1,0.4-1.8,0.4V97.4z M47,96.4c1.1-0.6,2-1.5,2.6-2.6l-3.5-2
		c-0.3,0.5-0.6,0.8-1.1,1.1L47,96.4z M49.6,93.8c0.6-1.1,0.9-2.4,0.9-3.7h-4c0,0.7-0.2,1.2-0.4,1.7L49.6,93.8z M50.6,90.2V72h-4
		v18.2H50.6z M61.6,101.1h-2v2h2V101.1z M61.6,72v-2h-2v2H61.6z M79.2,73.3L78.3,75l0,0l0,0L79.2,73.3z M82.9,76.8l-1.7,1l0,0
		L82.9,76.8z M82.9,87.3l-1.7-1l0,0L82.9,87.3z M79.2,90.8l0.9,1.8l0,0L79.2,90.8z M66,92.1h-2v2h2V92.1z M66,86.5v-2h-2v2H66z
		 M74.7,86l-0.9-1.8l0,0L74.7,86z M76.4,84.4l1.7,1l0,0L76.4,84.4z M76.4,79.7l-1.7,1l0,0L76.4,79.7z M74.7,78.2L73.8,80l0,0
		L74.7,78.2z M68.6,77.7v-2h-2v2H68.6z M68.6,101.1v2h2v-2H68.6z M63.6,101.1V72h-4v29.1H63.6z M61.6,74h12v-4h-12V74z M73.6,74
		c1.9,0,3.5,0.4,4.7,1l1.9-3.5c-1.9-1-4.1-1.5-6.6-1.5V74z M78.3,75c1.3,0.7,2.2,1.6,2.9,2.8l3.5-2c-1.1-1.9-2.6-3.3-4.5-4.3
		L78.3,75z M81.2,77.8c0.7,1.2,1,2.6,1,4.3h4c0-2.3-0.5-4.4-1.6-6.2L81.2,77.8z M82.2,82.1c0,1.7-0.4,3.1-1,4.3l3.5,2
		c1.1-1.9,1.6-4,1.6-6.3H82.2z M81.2,86.3c-0.7,1.1-1.6,2-2.9,2.7l1.8,3.6c1.9-1,3.5-2.4,4.6-4.3L81.2,86.3z M78.2,89
		c-1.3,0.7-2.9,1-4.9,1v4c2.5,0,4.7-0.5,6.7-1.5L78.2,89z M73.4,90.1H66v4h7.4V90.1z M68,92.1v-5.5h-4v5.5H68z M66,88.5h6.1v-4H66
		V88.5z M72.1,88.5c1.3,0,2.5-0.2,3.6-0.8l-1.8-3.5c-0.3,0.2-0.9,0.3-1.7,0.3V88.5z M75.6,87.7c1-0.5,1.9-1.3,2.5-2.4l-3.5-1.9
		c-0.2,0.3-0.4,0.5-0.8,0.7L75.6,87.7z M78.1,85.4c0.6-1,0.8-2.1,0.8-3.3h-4c0,0.6-0.1,1-0.3,1.4L78.1,85.4z M78.9,82.1
		c0-1.2-0.2-2.3-0.8-3.3l-3.5,2c0.2,0.3,0.3,0.7,0.3,1.3H78.9z M78.1,78.8c-0.6-1-1.4-1.8-2.5-2.3L73.8,80c0.4,0.2,0.6,0.4,0.8,0.7
		L78.1,78.8z M75.6,76.4c-1.1-0.5-2.3-0.8-3.6-0.8v4c0.8,0,1.4,0.1,1.8,0.3L75.6,76.4z M72.1,75.7h-3.5v4h3.5V75.7z M66.6,77.7v23.4
		h4V77.7H66.6z M68.6,99.1h-7v4h7V99.1z M92.1,101.1v2h1.5l0.4-1.4L92.1,101.1z M84.5,101.1l-1.9-0.6l-0.9,2.6h2.8V101.1z M94.3,72
		v-2h-1.4l-0.5,1.4L94.3,72z M103.7,72l1.9-0.6l-0.5-1.4h-1.4V72z M113.5,101.1v2h2.8l-0.9-2.6L113.5,101.1z M105.9,101.1l-1.9,0.6
		l0.4,1.4h1.5V101.1z M99.1,79.3l1.9-0.6l-0.4-1.4h-1.5V79.3z M98.9,79.3v-2h-1.5L97,78.7L98.9,79.3z M91,89.6v-2h-2v2H91z
		 M106.8,89.6h2v-2h-2V89.6z M106.8,95v2h2v-2H106.8z M91,95h-2v2h2V95z M92.1,99.1h-7.6v4h7.6V99.1z M86.4,101.7l9.8-29.1l-3.8-1.3
		l-9.8,29.1L86.4,101.7z M94.3,74h9.4v-4h-9.4V74z M101.8,72.6l9.8,29.1l3.8-1.3l-9.8-29.1L101.8,72.6z M113.5,99.1h-7.6v4h7.6V99.1
		z M107.8,100.5L101,78.7l-3.8,1.2l6.8,21.8L107.8,100.5z M99.1,77.3h-0.2v4h0.2V77.3z M97,78.7l-6.8,21.8l3.8,1.2l6.8-21.8L97,78.7
		z M91,91.6h15.8v-4H91V91.6z M104.8,89.6V95h4v-5.3H104.8z M106.8,93H91v4h15.8V93z M93,95v-5.3h-4V95H93z M113.6,77.7h-2v2h2V77.7
		z M113.6,72v-2h-2v2H113.6z M138.2,72h2v-2h-2V72z M138.2,77.7v2h2v-2H138.2z M129.4,77.7v-2h-2v2H129.4z M129.4,101.1v2h2v-2
		H129.4z M122.5,101.1h-2v2h2V101.1z M122.5,77.7h2v-2h-2V77.7z M115.6,77.7V72h-4v5.7H115.6z M113.6,74h24.6v-4h-24.6V74z
		 M136.2,72v5.7h4V72H136.2z M138.2,75.7h-8.8v4h8.8V75.7z M127.4,77.7v23.4h4V77.7H127.4z M129.4,99.1h-6.9v4h6.9V99.1z
		 M124.5,101.1V77.7h-4v23.4H124.5z M122.5,75.7h-8.8v4h8.8V75.7z M143.3,101.1h-2v2h2V101.1z M143.3,72v-2h-2v2H143.3z M160.9,73.2
		L160,75l0,0l0,0L160.9,73.2z M164.6,76.5l-1.7,1l0,0L164.6,76.5z M164.6,86.8l1.7,1.1l0,0L164.6,86.8z M160.8,90l0.8,1.8l0,0
		L160.8,90z M147.5,91.1h-2v2h2V91.1z M147.5,85.6v-2h-2v2H147.5z M156.4,85.2l0.7,1.9l0,0L156.4,85.2z M158,83.9l1.7,1.1l0,0l0,0
		L158,83.9z M158,79.5l-1.7,1.1l0,0l0,0L158,79.5z M156.4,78.1l-0.8,1.8l0,0l0,0L156.4,78.1z M150.3,77.7v-2h-2v2H150.3z
		 M150.3,101.1v2h2v-2H150.3z M159.6,87.8l1.8-1l-0.6-1h-1.2V87.8z M166.9,101.1v2h3.4l-1.6-3L166.9,101.1z M159.2,101.1l-1.8,0.9
		l0.6,1.1h1.2V101.1z M152.1,87.8v-2h-3.3l1.6,2.9L152.1,87.8z M145.3,101.1V72h-4v29.1H145.3z M143.3,74h12v-4h-12V74z M155.3,74
		c1.9,0,3.5,0.3,4.7,1l1.8-3.6c-1.9-1-4.1-1.4-6.5-1.4V74z M160,75c1.3,0.6,2.2,1.5,2.8,2.6l3.4-2c-1.1-1.8-2.6-3.2-4.5-4.1L160,75z
		 M162.9,77.6c0.6,1.1,1,2.4,1,4.1h4c0-2.3-0.5-4.4-1.6-6.2L162.9,77.6z M163.9,81.7c0,1.7-0.4,3.1-1,4.1l3.4,2.1
		c1.1-1.8,1.6-3.9,1.6-6.2H163.9z M162.9,85.8c-0.7,1-1.6,1.9-2.9,2.5l1.7,3.6c1.9-0.9,3.5-2.2,4.6-4L162.9,85.8z M160,88.2
		c-1.3,0.6-2.9,0.9-4.9,0.9v4c2.4,0,4.6-0.4,6.6-1.3L160,88.2z M155.1,89.1h-7.6v4h7.6V89.1z M149.5,91.1v-5.5h-4v5.5H149.5z
		 M147.5,87.6h6.3v-4h-6.3V87.6z M153.8,87.6c1.2,0,2.4-0.2,3.4-0.5l-1.4-3.7c-0.4,0.2-1,0.3-1.9,0.3V87.6z M157.1,87
		c1-0.4,1.9-1.1,2.6-2l-3.4-2.2c-0.1,0.2-0.3,0.4-0.7,0.5L157.1,87z M159.7,85c0.6-1,0.9-2.1,0.9-3.3h-4c0,0.6-0.1,1-0.2,1.1
		L159.7,85z M160.6,81.7c0-1.2-0.2-2.3-0.9-3.3l-3.4,2.1c0.1,0.2,0.2,0.5,0.2,1.2H160.6z M159.7,78.4c-0.6-1-1.5-1.7-2.6-2.1
		l-1.5,3.7c0.4,0.2,0.6,0.3,0.7,0.5L159.7,78.4z M157.2,76.3c-1-0.4-2.2-0.6-3.4-0.6v4c0.9,0,1.5,0.1,1.9,0.3L157.2,76.3z
		 M153.8,75.7h-3.5v4h3.5V75.7z M148.3,77.7v23.4h4V77.7H148.3z M150.3,99.1h-7v4h7V99.1z M157.9,88.8l7.2,13.3l3.5-1.9l-7.2-13.3
		L157.9,88.8z M166.9,99.1h-7.7v4h7.7V99.1z M161,100.1l-7.1-13.3l-3.5,1.9l7.1,13.3L161,100.1z M152.1,89.8h7.5v-4h-7.5V89.8z
		 M177.6,101.1v2h1.5l0.4-1.4L177.6,101.1z M170.1,101.1l-1.9-0.6l-0.9,2.6h2.8V101.1z M179.9,72v-2h-1.4l-0.5,1.4L179.9,72z
		 M189.3,72l1.9-0.6l-0.5-1.4h-1.4V72z M199.1,101.1v2h2.8l-0.9-2.6L199.1,101.1z M191.5,101.1l-1.9,0.6l0.4,1.4h1.5V101.1z
		 M184.7,79.3l1.9-0.6l-0.4-1.4h-1.5V79.3z M184.5,79.3v-2H183l-0.4,1.4L184.5,79.3z M176.6,89.6v-2h-2v2H176.6z M192.4,89.6h2v-2
		h-2V89.6z M192.4,95v2h2v-2H192.4z M176.6,95h-2v2h2V95z M177.6,99.1h-7.6v4h7.6V99.1z M172,101.7l9.8-29.1l-3.8-1.3l-9.8,29.1
		L172,101.7z M179.9,74h9.4v-4h-9.4V74z M187.4,72.6l9.8,29.1l3.8-1.3l-9.8-29.1L187.4,72.6z M199.1,99.1h-7.6v4h7.6V99.1z
		 M193.4,100.5l-6.8-21.8l-3.8,1.2l6.8,21.8L193.4,100.5z M184.7,77.3h-0.2v4h0.2V77.3z M182.5,78.7l-6.8,21.8l3.8,1.2l6.8-21.8
		L182.5,78.7z M176.6,91.6h15.8v-4h-15.8V91.6z M190.4,89.6V95h4v-5.3H190.4z M192.4,93h-15.8v4h15.8V93z M178.6,95v-5.3h-4V95
		H178.6z"/>
</g>
<g id="Layer_2">
	<g>
		<rect y="0.9" class="st2" width="458.7" height="109.1"/>
		<text transform="matrix(1 0 0 1 9.188080e-02 86.4279)" class="st3 st4 st5 st6">SUPATRA</text>
	</g>
	<g>
		<rect y="0.9" class="st2" width="458.7" height="109.1"/>
		<text transform="matrix(1 0 0 1 9.188080e-02 86.4279)" class="st7 st4 st5 st6">SUPATRA</text>
	</g>
</g>
</svg>
