<svg width="36" height="29" viewBox="0 0 36 29" fill="none" xmlns="http://www.w3.org/2000/svg">
<path d="M1.41512 18.3207L1.40726 18.3285L1.39958 18.3366C0.993463 18.7611 0.892545 19.3807 1.12133 19.9087C1.35338 20.4442 1.87151 20.7778 2.44444 20.7778C4.45139 20.7778 6.13998 20.1791 7.41214 19.5098C8.24586 19.878 9.13719 20.175 10.0728 20.3887L10.9174 21.9305C12.8819 25.5164 17.3792 27.8889 22.4444 27.8889C24.6727 27.8889 26.7673 27.4299 28.589 26.6215C29.8611 27.2906 31.5492 27.8889 33.5556 27.8889C34.1203 27.8889 34.6502 27.5569 34.8795 27.0179C35.1146 26.4792 34.9911 25.8736 34.6149 25.4632L34.6003 25.4471L34.5849 25.4318C34.5872 25.4341 34.5838 25.4303 34.5752 25.4206C34.4765 25.309 33.6925 24.4233 33.0752 23.2636C34.2779 21.7611 35 19.9599 35 18C35 13.7008 31.5862 10.2276 27.1174 8.81851L25.7112 8.37513C24.2809 4.00393 19.2031 1 13.5556 1C6.87973 1 1 5.19739 1 10.8889C1 12.85 1.72296 14.6466 2.92474 16.151C2.30928 17.3049 1.52836 18.1917 1.42566 18.3083C1.41631 18.319 1.41258 18.3232 1.41512 18.3207Z" fill="white" stroke="black" stroke-width="2"/>
</svg>
