<?xml version="1.0" encoding="utf-8"?>
<!-- Generator: Adobe Illustrator 27.0.0, SVG Export Plug-In . SVG Version: 6.00 Build 0)  -->
<svg version="1.1" xmlns="http://www.w3.org/2000/svg" xmlns:xlink="http://www.w3.org/1999/xlink" x="0px" y="0px"
	 viewBox="0 0 36 29" style="enable-background:new 0 0 36 29;" xml:space="preserve">
<style type="text/css">
	.st0{fill:#FFFFFF;stroke:#000000;stroke-width:2;}
	.st1{display:none;}
	.st2{display:inline;}
	.st3{fill:#FFFFFF;}
	
		.st4{display:inline;fill:#FFFFFF;stroke:#000000;stroke-width:2;stroke-linecap:round;stroke-linejoin:round;stroke-miterlimit:10;}
	.st5{display:inline;fill:none;stroke:#000000;stroke-width:2;stroke-linecap:round;stroke-linejoin:round;stroke-miterlimit:10;}
</style>
<g id="Layer_2">
	<path class="st0" d="M17,7.1L6.7,15.8c-0.3,0.3-0.5,0.7-0.5,1.2v9.3c0,0.9,0.7,1.5,1.5,1.5h6c0.9,0,1.5-0.7,1.5-1.5v-5.1
		c0-0.9,0.7-1.5,1.5-1.5h2.5c0.9,0,1.5,0.7,1.5,1.5v5.1c0,0.9,0.7,1.5,1.5,1.5h6c0.9,0,1.5-0.7,1.5-1.5V17c0-0.5-0.2-0.9-0.5-1.2
		L19,7.1C18.4,6.6,17.6,6.6,17,7.1z"/>
	<path class="st0" d="M30.1,9.7V2.5c0-0.8-0.7-1.5-1.5-1.5h-3.3c-0.8,0-1.5,0.7-1.5,1.5v2.1L20.7,2c-1.6-1.3-3.8-1.3-5.4,0L1.5,13.4
		c-0.6,0.5-0.7,1.5-0.2,2.1l1.5,1.7c0.5,0.6,1.5,0.7,2.1,0.2L17,7c0.6-0.5,1.4-0.5,1.9,0l12.2,10.3c0.6,0.5,1.6,0.5,2.1-0.2l1.5-1.7
		c0.5-0.6,0.5-1.6-0.2-2.1L30.1,9.7z"/>
</g>
<g id="Layer_3" class="st1">
	<g class="st2">
		<circle class="st3" cx="18" cy="14.5" r="13.5"/>
		<path d="M18,2c6.9,0,12.5,5.6,12.5,12.5S24.9,27,18,27S5.5,21.4,5.5,14.5S11.1,2,18,2 M18,0C10,0,3.5,6.5,3.5,14.5S10,29,18,29
			s14.5-6.5,14.5-14.5S26,0,18,0L18,0z"/>
	</g>
	<path class="st4" d="M24.3,17.5c-3.7,4.4-8.9,4.4-12.6,0.1l-0.1-0.1"/>
	<path class="st5" d="M20.5,11.9c0.1-0.1,0.7-0.7,1.8-0.7c1.1,0,1.5,0.6,1.7,0.7"/>
	<circle class="st2" cx="13.8" cy="11.7" r="1.9"/>
</g>
</svg>
