<svg width="20" height="32" viewBox="0 0 20 32" fill="none" xmlns="http://www.w3.org/2000/svg">
<path d="M10.338 9.68817L9.90748 11H11.2882H18.5007C18.8854 11 19.1222 11.4187 18.9312 11.7451L18.929 11.749L7.92898 30.749C7.83688 30.9081 7.67085 31 7.49441 31C7.17577 31 6.93689 30.7011 7.0112 30.3869C7.01122 30.3868 7.01123 30.3868 7.01124 30.3867L9.89245 18.2306L10.1841 17H8.91941H1.50066C1.20082 17 0.964906 16.7341 1.00449 16.4314C1.00452 16.4312 1.00454 16.431 1.00457 16.4308L3.00424 1.43325C3.00426 1.43311 3.00428 1.43296 3.0043 1.43281C3.03763 1.18661 3.25058 1 3.50066 1H12.5007C12.8147 1 13.0568 1.29904 12.9887 1.61158L10.338 9.68817Z" fill="white" stroke="black" stroke-width="2"/>
</svg>
