<svg width="32" height="32" viewBox="0 0 32 32" fill="none" xmlns="http://www.w3.org/2000/svg">
<path d="M10.7032 25.3574C10.7032 25.4876 10.5548 25.5918 10.3677 25.5918C10.1548 25.6113 10.0065 25.5071 10.0065 25.3574C10.0065 25.2271 10.1548 25.1229 10.3419 25.1229C10.5355 25.1034 10.7032 25.2076 10.7032 25.3574ZM8.69677 25.0643C8.65161 25.1946 8.78065 25.3443 8.97419 25.3834C9.14194 25.4485 9.33548 25.3834 9.37419 25.2532C9.4129 25.1229 9.29032 24.9732 9.09677 24.9146C8.92903 24.869 8.74194 24.9341 8.69677 25.0643ZM11.5484 24.9536C11.3613 24.9992 11.2323 25.1229 11.2516 25.2727C11.271 25.4029 11.4387 25.4876 11.6323 25.442C11.8194 25.3964 11.9484 25.2727 11.929 25.1425C11.9097 25.0187 11.7355 24.9341 11.5484 24.9536ZM15.7935 0C6.84516 0 0 6.85704 0 15.8891C0 23.1108 4.50323 29.2906 10.9355 31.4655C11.7613 31.6153 12.0516 31.1009 12.0516 30.6776C12.0516 30.2739 12.0323 28.0468 12.0323 26.6793C12.0323 26.6793 7.51613 27.6561 6.56774 24.7387C6.56774 24.7387 5.83226 22.8438 4.77419 22.3554C4.77419 22.3554 3.29677 21.333 4.87742 21.3525C4.87742 21.3525 6.48387 21.4828 7.36774 23.0326C8.78064 25.5462 11.1484 24.8234 12.071 24.3936C12.2194 23.3517 12.6387 22.6289 13.1032 22.1991C9.49677 21.7954 5.85806 21.2679 5.85806 15.0034C5.85806 13.2127 6.34839 12.314 7.38065 11.1679C7.2129 10.7446 6.66452 8.99945 7.54839 6.74634C8.89677 6.32306 12 8.50455 12 8.50455C13.2903 8.13988 14.6774 7.95104 16.0516 7.95104C17.4258 7.95104 18.8129 8.13988 20.1032 8.50455C20.1032 8.50455 23.2065 6.31655 24.5548 6.74634C25.4387 9.00597 24.8903 10.7446 24.7226 11.1679C25.7548 12.3205 26.3871 13.2192 26.3871 15.0034C26.3871 21.2874 22.5871 21.7888 18.9806 22.1991C19.5742 22.7135 20.0774 23.6903 20.0774 25.2206C20.0774 27.4151 20.0581 30.1306 20.0581 30.6646C20.0581 31.0878 20.3548 31.6023 21.1742 31.4525C27.6258 29.2906 32 23.1108 32 15.8891C32 6.85704 24.7419 0 15.7935 0ZM6.27097 22.4596C6.1871 22.5247 6.20645 22.6745 6.31613 22.7982C6.41935 22.9024 6.56774 22.948 6.65161 22.8633C6.73548 22.7982 6.71613 22.6484 6.60645 22.5247C6.50323 22.4205 6.35484 22.3749 6.27097 22.4596ZM5.57419 21.9321C5.52903 22.0168 5.59355 22.1209 5.72258 22.1861C5.82581 22.2512 5.95484 22.2316 6 22.1405C6.04516 22.0558 5.98064 21.9516 5.85161 21.8865C5.72258 21.8474 5.61935 21.867 5.57419 21.9321ZM7.66452 24.2503C7.56129 24.335 7.6 24.5304 7.74839 24.6541C7.89677 24.8039 8.08387 24.8234 8.16774 24.7192C8.25161 24.6345 8.2129 24.4392 8.08387 24.3155C7.94194 24.1657 7.74839 24.1461 7.66452 24.2503ZM6.92903 23.2931C6.82581 23.3582 6.82581 23.5275 6.92903 23.6773C7.03226 23.8271 7.20645 23.8922 7.29032 23.8271C7.39355 23.7424 7.39355 23.5731 7.29032 23.4233C7.2 23.2736 7.03226 23.2084 6.92903 23.2931Z" fill="black"/>
</svg>
