<?xml version="1.0" encoding="utf-8"?>
<!-- Generator: Adobe Illustrator 27.1.1, SVG Export Plug-In . SVG Version: 6.00 Build 0)  -->
<svg version="1.1" id="Layer_3" xmlns="http://www.w3.org/2000/svg" xmlns:xlink="http://www.w3.org/1999/xlink" x="0px" y="0px"
	 viewBox="0 0 704 554" style="enable-background:new 0 0 704 554;" xml:space="preserve">
<style type="text/css">
	.st0{fill:#EE4266;}
</style>
<path class="st0" d="M703.8,327.1c-0.7-12.3-10.9-21.3-22.5-21.3c-2.2,0-4.4,0.3-6.6,1c-17.7,5.3-36.4,8.2-55.8,8.2
	c-65.6,0-123.6-32.9-158.5-83h0c-21.7-31.2-34.4-69.1-34.4-110c0-24.8,4.7-48.5,13.2-70.2c6-15.3-5.3-31.8-21.7-31.8H239
	C137.2,20,53.9,110.8,47.4,225.6c-20.7,5.9-33.5,27-30.1,47.7C6.4,290.2,0,311,0,333.6v8.9c0,39.7,20,74.1,49,90.8
	C59.8,501.9,112.1,554,175.1,554h353.8c63,0,115.3-52,126.1-120.7c29.1-16.7,49-51.1,49-90.9v-8.9
	C704,331.3,703.9,329.2,703.8,327.1z M239,62h152.7c-5.1,19.5-7.7,39.6-7.7,60c0,38.3,9.5,76.3,27.3,110h-66.7c-6.8-5-15.3-8-24.9-8
	H89.6C96.4,133.3,160.8,62,239,62z M315.9,272.8L231.3,397h0l-0.2,0.3l-41.2,60.5c-0.1,0.1-0.1,0.1-0.1,0.2c-0.1,0-0.1,0-0.2,0
	c-0.1,0-0.2,0-0.2,0s-0.1-0.1-0.1-0.2l-126.2-185H315.9z M42,333.5c0-3.3,0.2-6.7,0.7-10L86.1,397H70.1c-4.5-2.6-8.8-6.1-12.5-10.4
	C47.5,375.1,42,359.4,42,342.4V333.5z M529,512H175.1c-21.9,0-42.8-10.2-58.9-28.6c-9.8-11.2-17.2-24.7-21.8-39.4h32.2l21.7,36.8
	c8.6,14.5,24.3,23.6,41,23.6c16.7,0,32.4-9,41-23.6l21.7-36.8h357.4c-4.6,14.7-11.9,28.2-21.7,39.4C571.8,501.9,550.9,512,529,512z
	 M646.4,386.6c-3.8,4.3-8,7.8-12.6,10.4H293l68-115.2c0.3-0.6,0.7-1.1,1-1.7h83.2c18,19.8,39.5,36.6,63.1,49.3
	c33.9,18,72.1,27.6,110.7,27.6c14.2,0,28.3-1.3,42.2-3.8C659.4,366,654.2,377.6,646.4,386.6z"/>
</svg>
