<?xml version="1.0" encoding="utf-8"?>
<!-- Generator: Adobe Illustrator 27.0.1, SVG Export Plug-In . SVG Version: 6.00 Build 0)  -->
<svg version="1.1" id="Layer_3" xmlns="http://www.w3.org/2000/svg" xmlns:xlink="http://www.w3.org/1999/xlink" x="0px" y="0px"
	 viewBox="0 0 704 554" style="enable-background:new 0 0 704 554;" xml:space="preserve">
<style type="text/css">
	.st0{fill:#EE4266;}
</style>
<path class="st0" d="M611,439c-4.4,16.7-12.2,31.9-23.1,44.4c-16.1,18.5-37,28.6-58.9,28.6H175.1c-21.9,0-42.8-10.2-58.9-28.6
	C105.3,470.9,97.4,455.7,93,439h30.7l24.7,41.8c8.6,14.5,24.3,23.6,41,23.6s32.4-9,41-23.6l24.7-41.8H611 M657,397H231.3l-36.9,62.5
	c-1.2,2-3,3-4.9,3s-3.7-1-4.9-3L147.7,397H47v10.2C47,488.3,104.3,554,175.1,554h353.8c70.8,0,128.1-65.7,128.1-146.8V397L657,397z"
	/>
<path class="st0" d="M59.3,224v42h260.4c0.1,0,0.2,0,0.2,0c0.1,0.1,0.2,0.3,0.3,0.5c0,0-0.1,0.1-0.1,0.2L189.9,457.8
	c-0.1,0.1-0.1,0.1-0.1,0.2c-0.1,0-0.1,0-0.2,0s-0.2,0-0.2,0c0,0-0.1-0.1-0.1-0.2L58.9,266.7c-0.1-0.1-0.1-0.2-0.1-0.2
	c0-0.2,0.2-0.4,0.3-0.5c0.1,0,0.1,0,0.2,0L59.3,224 M59.3,224c-34.1,0-54.3,38.2-35.1,66.4l130.2,191.1
	c8.4,12.4,21.8,18.5,35.1,18.5s26.7-6.2,35.1-18.5l130.2-191.1c19.2-28.2-1-66.4-35.1-66.4L59.3,224L59.3,224z"/>
<path class="st0" d="M439.8,274c19.1,22.5,42.5,41.4,68.5,55.4C542.2,347.4,580.4,357,619,357c14.2,0,28.3-1.3,42.2-3.8
	c-1.8,12.8-7,24.4-14.8,33.4c-8.6,9.9-19.7,15.4-31,15.4H290l71-120.2c1.5-2.5,2.7-5.1,3.7-7.8L439.8,274 M42.7,323.5L89,402h-0.4
	c-11.4,0-22.4-5.5-31-15.4C47.5,375.1,42,359.4,42,342.4v-8.9C42,330.2,42.2,326.8,42.7,323.5 M460.4,232H88.6
	C39.7,232,0,277.5,0,333.6v8.9C0,398.5,39.7,444,88.6,444h74L54.2,260.4c-2.6-4.4,0.2-10.5,4.8-10.5h261c4.7,0,7.5,6,4.9,10.5
	L216.4,444h399c49,0,88.6-45.5,88.6-101.6v-8.9c0-2.2-0.1-4.3-0.2-6.4c-0.7-12.3-10.9-21.3-22.5-21.3c-2.2,0-4.4,0.3-6.6,1
	c-17.7,5.3-36.4,8.2-55.8,8.2C553.3,315,495.3,282.1,460.4,232L460.4,232L460.4,232z"/>
<path class="st0" d="M391.7,62c-5.1,19.5-7.7,39.6-7.7,60c0,38.4,9.5,76.5,27.4,110.2c1,2,2.1,3.9,3.2,5.9h-69.5
	c-7.5-4.7-16.2-7.3-25.1-7.3H89.2C93.2,136.9,158.9,62,239,62L391.7,62 M417.5,20H239C133,20,47,118.5,47,240v40.1h6.2
	c-0.3-3.7,2.2-7.3,5.8-7.3h261c3.6,0,6.1,3.6,5.8,7.3h182.5C458.5,245.2,426,187.4,426,122c0-24.8,4.7-48.5,13.2-70.2
	C445.2,36.5,433.9,20,417.5,20L417.5,20L417.5,20z"/>
</svg>
