<?xml version="1.0" encoding="UTF-8"?><svg id="Layer_3" xmlns="http://www.w3.org/2000/svg" viewBox="0 0 36.13 29"><defs><style>.cls-1,.cls-2{fill:#fff;}.cls-2,.cls-3{stroke:#000;stroke-linecap:round;stroke-linejoin:round;stroke-width:2px;}.cls-3{fill:none;}</style></defs><g><circle class="cls-1" cx="18.07" cy="14.5" r="13.5"/><path d="M18.07,2c6.89,0,12.5,5.61,12.5,12.5s-5.61,12.5-12.5,12.5S5.57,21.39,5.57,14.5,11.17,2,18.07,2m0-2C10.06,0,3.57,6.49,3.57,14.5s6.49,14.5,14.5,14.5,14.5-6.49,14.5-14.5S26.08,0,18.07,0h0Z"/></g><path class="cls-2" d="M24.41,17.55c-3.73,4.38-8.87,4.41-12.63,.08l-.07-.08"/><path class="cls-3" d="M20.58,11.91c.11-.07,.68-.7,1.8-.7s1.51,.59,1.69,.7"/><circle cx="13.88" cy="11.72" r="1.88"/></svg>